<svg xmlns="http://www.w3.org/2000/svg" xmlns:xlink="http://www.w3.org/1999/xlink" viewBox="0 0 687.92 120"><defs><style>.cls-1,.cls-10,.cls-9{fill:none;}.cls-2{fill:#fff;}.cls-3{fill:#f6ede7;}.cls-4{fill:url(#新規パターン_9);}.cls-5{fill:#e00545;}.cls-6{fill:#d3bd02;}.cls-7{fill:#d07170;}.cls-8{fill:#ffa2cb;}.cls-8,.cls-9{fill-rule:evenodd;}.cls-10,.cls-9{stroke:#ffa2cb;stroke-miterlimit:10;stroke-width:4px;}</style><pattern id="新規パターン_9" data-name="新規パターン 9" width="36" height="36" patternUnits="userSpaceOnUse" viewBox="0 0 36 36"><rect class="cls-1" width="36" height="36"/><rect class="cls-2" x="1" y="1" width="4" height="16"/><rect class="cls-2" x="13" y="1" width="4" height="16"/><rect class="cls-2" x="7" y="1" width="4" height="16"/><polygon class="cls-2" points="35 13 35 17 19 17 19 13 35 13"/><polygon class="cls-2" points="35 1 35 5 19 5 19 1 35 1"/><polygon class="cls-2" points="35 7 35 11 19 11 19 7 35 7"/><polygon class="cls-2" points="31 35 35 35 35 19 31 19 31 35"/><polygon class="cls-2" points="19 35 23 35 23 19 19 19 19 35"/><polygon class="cls-2" points="25 35 29 35 29 19 25 19 25 35"/><polygon class="cls-2" points="1 31 1 35 17 35 17 31 1 31"/><polygon class="cls-2" points="1 19 1 23 17 23 17 19 1 19"/><polygon class="cls-2" points="1 25 1 29 17 29 17 25 1 25"/></pattern></defs><g id="レイヤー_2" data-name="レイヤー 2"><g id="レイヤー_1-2" data-name="レイヤー 1"><path class="cls-3" d="M635,0H0V120H615a20,20,0,0,0,20-20h0a20,20,0,0,0-20-20H602.08a20,20,0,0,1-20-20h0a20,20,0,0,1,20-20h65.84a20,20,0,0,0,20-20h0a20,20,0,0,0-20-20Z"/><path class="cls-4" d="M635,0H0V120H615a20,20,0,0,0,20-20h0a20,20,0,0,0-20-20H602.08a20,20,0,0,1-20-20h0a20,20,0,0,1,20-20h65.84a20,20,0,0,0,20-20h0a20,20,0,0,0-20-20Z"/><path class="cls-5" d="M144.71,38.93c.65,25.56,13.25,40.9,29.81,46.37,2.16.72,1.94,1.94.07,2.52a5,5,0,0,0-3.17,2c-.79,1-1.51,1.8-3.38.8-12.39-6.7-21.39-18.51-24.48-36.51a45.49,45.49,0,0,1-5.76,17c-5,8.21-13.18,16.2-26.5,21.17-2,.72-2.81-1.44-1.08-2.37C121.88,83.5,128.51,77.09,133,69.6c5.91-9.72,6.41-20.16,6.27-27.72-.07-3.53-.29-6.63-.58-9.79-.07-.72.15-1.08,1.08-1.08,2.38,0,9.36,1.15,9.36,2.95,0,1-1.22,2.23-4.39,2.73Z"/><path class="cls-6" d="M241.33,58.66c0,3.45-3.31,5.11-7.92,6.62-2.95,1-9.79,3.1-14.54,4.9,0,1.65.07,3.6.07,5,0,1.72-.72,3-2.3,3a2.91,2.91,0,0,1-3-3c0-.79.15-1.73.22-3-4.9,2.44-7.78,4.75-7.78,8.13,0,3.17,3.82,4.39,7.63,4.39,6,0,9.65-1.44,12.6-1.44,2.24,0,4.4.65,4.4,2.88s-5,3.82-14.84,3.82c-9.5,0-14-3.38-14-8.71,0-4.25,2.88-7.64,12.24-12.24a28.47,28.47,0,0,0-.07-3.53c-.29-3.53-2-7.35-5.69-7.35-4.53,0-6.84,5.91-12.09,12.53-1.08,1.37-1.95,2.67-3.68,2.67a2.46,2.46,0,0,1-2.59-2.6c-.07-1.29.43-2.73,2.31-4.6,4.75-4.76,10.58-11.16,14.18-18.8a68,68,0,0,1-8.93.58c-5.18,0-8.06-2.59-8.93-8.28-.21-1.66.8-2,1.95-.94C194,42,196,43.53,200.22,43.53a73.75,73.75,0,0,0,8-.43,21.6,21.6,0,0,0,1.44-4.75c.22-1.51.43-2.74-.72-4s-2.16-2-2.16-2.88c0-1,2.23-1.44,3.31-1.44,2.31,0,5.4.79,5.4,2.52,0,1.51-1.29,6-2.73,9.79,7.7-1.73,10.51-4.89,13.53-4.89,1.59,0,3.39.86,3.46,2.66s-2.45,2.59-4.46,3.38a106.71,106.71,0,0,1-14.76,3.39c-1.37,2.37-4.11,7.06-5.26,9.29,4.82-1.3,9.36-.79,11.88,5.33,4.32-7.49,9.36-10.23,14.4-10.23C236.73,51.31,241.33,54.48,241.33,58.66Zm-5.76-1.3c0-2-1.73-3.24-4.75-3.24s-7.06,2.16-9.43,6.12a16.56,16.56,0,0,0-2.45,6.62c4.61-2,9.22-3.74,10.95-4.53C233.41,60.74,235.57,60.1,235.57,57.36Z"/><path class="cls-5" d="M273.51,43c1.16-1.44,2.6-3,3.32-3,1.44-.07,5.69,4.1,5.76,5.83,0,.86-1.59,1.66-3.6,1.94a55.46,55.46,0,0,1-8.5,11.81c-.14,3.82-.14,12.68-.14,14.48,0,2.88.07,14.83.07,16.7,0,1.59-1.15,2.31-3.31,2.31a1.8,1.8,0,0,1-2-2c.07-4.61.36-17,.14-26.5a64.92,64.92,0,0,1-11.44,7.78c-1.88,1.08-3.1-.86-1.37-2.23a71.53,71.53,0,0,0,12.67-11.09c-.07-1.3-.14-2.52-.22-3.53a.89.89,0,0,1,1-.93,12.82,12.82,0,0,1,2.31.72,44.56,44.56,0,0,0,5.54-9.51H255.22c-.93,0-1.58-.29-1.58-1.44s.65-1.44,1.58-1.44h9.44c.07-4.46.07-10.73-.22-13.68a.91.91,0,0,1,1-1.08c1.22,0,7.27.29,7.27,2,0,1.15-1.15,1.65-3,2.08V43Z"/><path class="cls-6" d="M273.23,61.68c-.87-1.08-.29-2.38,1.36-1.94,3.89,1,7.93,3.52,8.21,6.69a2.72,2.72,0,0,1-2.59,3.24c-1.73.15-2.59-1.44-3.89-3.6C275.39,64.63,274.31,63.05,273.23,61.68Z"/><path class="cls-5" d="M298.72,62.54c0,.94-.72,1.3-2.45,1.66-1.73,15.41-7.78,23.69-21,28.8-2.52.94-3.31-1.22-.93-2.37,12-6.2,16.13-15,16.92-28.88,0-.72.21-1.22,1.22-1.15C294.83,60.6,298.72,61.1,298.72,62.54Z"/><path class="cls-6" d="M289.28,60.67c0,1.59-1,2.31-3.16,2.31a1.8,1.8,0,0,1-1.95-2c0-1.51.22-10.87.22-13.54,0-3.24-.15-11-.58-15.12-.07-.79.36-1.29,1.3-1a31.25,31.25,0,0,1,5.47,2.6h17.21c1-1.44,2.38-3,3.17-3,1.37,0,5.47,3.1,5.47,4.68,0,.94-1.15,1.51-2.38,2-.14,5.54.08,19.66.08,22.46,0,2.24-1.16,2.81-3,2.81-1.65,0-2.16-1.29-2.16-2.45V59.16H289.28Zm19.66-4.39c.07-5.69.15-15.41.15-19.51H289.28c-.07,2.3-.07,8.64-.07,10.8l.07,8.71Z"/><path class="cls-5" d="M320.46,88.54c0,2.23-3.31,3.6-10.94,3.6-8.07,0-9.58-.94-9.58-6.41,0-2.23.36-16.49-.14-23.91-.08-1,.21-1.29,1.22-1.29,2.31,0,6.19.72,6.19,2,0,.8-.72,1.3-2.3,1.59-.22,5.9-.22,16.27-.15,20.16,0,2.66.37,3.17,4.69,3.17,3.74,0,5.11-.58,5.83-2.16A50.66,50.66,0,0,0,316.79,80c.36-1.73,2.3-1.51,2.3.29C319.09,87.1,320.46,86.45,320.46,88.54Z"/><path class="cls-5" d="M348.11,61A6.11,6.11,0,0,1,342,57.22a8.37,8.37,0,0,1-.72-4.9c.21-1.73,1.51-2,2.23-1.15,1.15,1.37,2.81,4.1,5.9,4.1,4.47,0,8.36-1.15,12.46-1.15,7.2,0,13.9,4.54,13.9,15.12,0,13.83-11.52,20.88-26.93,20.88-2.74,0-3-2.3-.22-2.73,13.39-2.09,21.53-7.85,21.53-19.16,0-5.76-2.59-10.37-7.49-10.37S352.14,61,348.11,61Z"/><path class="cls-6" d="M358.84,34c4.6,1.44,8.49,4.53,8.49,7.77,0,1.16-.79,2-2.52,2.45A51,51,0,0,1,356,45.62c-1.23.07-1.59-1.15-.65-1.73a18.86,18.86,0,0,0,2.95-2c1.08-.94,1.08-1.87-.07-2.81-2-1.66-5.33-3-8.14-3.89-1.51-.5-1.44-2.16.43-2.3A24.25,24.25,0,0,1,358.84,34Z"/><path class="cls-5" d="M463,51.89A5.16,5.16,0,0,0,460.07,54c-1.08,1.44-1.66,1.87-3.38,1.29-8.5-2.73-18.44-9.72-25-21C424.86,44.4,414,55.27,399.37,61c-1.87.72-2.95-1.3-1.15-2.3C412.4,50.74,422.55,40,428,28.05a1.08,1.08,0,0,1,1.37-.72c2.66.8,6.48,2.6,6.19,3.82-.15.58-.79.94-2.16.65,7.2,10,18,15.33,29.16,17.78C464.82,50,464.39,51.38,463,51.89Z"/><path class="cls-6" d="M448.76,66.22c1.59-2.38,3.68-5.19,4.83-5.19,1.51,0,6.77,4.54,6.77,6.34,0,1.08-1.37,1.73-4,1.73H430.33c1.37.57,2.38,1.29,2.31,2.09,0,1.29-2,1.65-3.82,1.65a108.27,108.27,0,0,1-6.77,11.52c8.79-.29,16.35-1.08,22.54-1.87a42.89,42.89,0,0,0-4.25-4.75c-1-1,0-2.67,1.66-2,8.57,3,12.81,8.71,13.39,12.24.43,2.38-.65,3.89-2.66,4.18-1.66.21-2.45-.58-3.46-2.23-.72-1.16-1.51-2.81-2.59-4.54-8.5,2.16-20,3.67-35.29,4.9-.57,1.65-1.51,3.09-2.73,3-1.59-.29-2.31-3.82-2.23-7.85,0-.72.36-.86.93-.86,3.6.07,7.13.07,10.44,0a76.26,76.26,0,0,0,6.27-15.41H403.76c-.93,0-1.58-.29-1.58-1.44s.65-1.44,1.58-1.44Z"/><path class="cls-6" d="M417.66,57.58c-.94,0-1.59-.29-1.59-1.44s.65-1.44,1.59-1.44h16.56c1.51-2.31,3.53-5,4.68-5,1.44,0,6.62,4.39,6.62,6.19,0,1-1.51,1.66-4,1.66Z"/><path d="M82,56.74c.92-5.93,2.33-11.74,3.4-17.64a21.93,21.93,0,0,1,4.77-9.77l.39.12c.74,4.95-.71,9.67-2.75,14.1q-2.54,6.72-5.43,13.31L82,56.74Z"/><circle class="cls-5" cx="89.52" cy="32.42" r="5.95"/><path class="cls-2" d="M89.7,31.81a4.68,4.68,0,0,1,.82-2.41c1-1,3.09,1.27,1.67,2.11A3.92,3.92,0,0,1,89.7,31.81Z"/><path class="cls-2" d="M89.7,31.81a3.85,3.85,0,0,1,2.55,0c.9.55-.44,3.12-1.54,2.21A3.4,3.4,0,0,1,89.7,31.81Z"/><path class="cls-2" d="M89.77,31.89a4.17,4.17,0,0,1,.74,2.35c-.15,1-3,.83-2.64-.54C88.22,32.52,89.77,31.89,89.77,31.89Z"/><path class="cls-2" d="M89.7,31.81a4.42,4.42,0,0,1-2,1.65c-1.08.34-1.74-2.84-.32-2.83A2.68,2.68,0,0,1,89.7,31.81Z"/><path class="cls-2" d="M89.77,31.89a5.25,5.25,0,0,1-2.14-1.48c-.83-1.29,2.67-2.64,2.59-.75A7.41,7.41,0,0,1,89.77,31.89Z"/><path class="cls-7" d="M90,32.27a.46.46,0,0,0,.06-.65.46.46,0,0,0-.7.59A.46.46,0,0,0,90,32.27Z"/><path class="cls-7" d="M90.91,31.85a.11.11,0,0,0-.12.06l-.88,0,.63-.15a.09.09,0,0,0,.06,0,.1.1,0,0,0,.05-.19.1.1,0,0,0-.12.07h0l-.68.17.6-.44h0a.1.1,0,1,0-.07-.12v0l-.62.45.54-.73h0a.1.1,0,0,0,.12-.07.11.11,0,0,0-.07-.12.1.1,0,0,0-.12.07.08.08,0,0,0,0,.07l-.54.73.19-.64A.08.08,0,0,0,90,31,.09.09,0,0,0,90,30.9a.1.1,0,0,0-.12.07.11.11,0,0,0,0,.11l-.17.6,0-.73s0,0,0-.06a.09.09,0,0,0-.06-.12.1.1,0,0,0-.12.07.08.08,0,0,0,.06.11l0,.74-.22-.57s0,0,0,0a.09.09,0,1,0-.18,0,.09.09,0,0,0,.07.12h0l.23.6L89.11,31s0,0,0,0a.1.1,0,0,0-.07-.12.1.1,0,0,0-.12.07.11.11,0,0,0,.07.12h0l.42.67-.73-.49a.11.11,0,0,0-.07-.12.1.1,0,0,0-.12.07.09.09,0,0,0,.15.1l.75.51-.74-.21a.1.1,0,0,0-.07-.09.11.11,0,0,0-.12.07.1.1,0,0,0,.07.12.11.11,0,0,0,.11,0l.73.2L88.6,32a.06.06,0,0,0-.06-.05.09.09,0,0,0-.12.07.1.1,0,1,0,.19.05l.76-.07-.88.34,0,0a.09.09,0,1,0,0,.18.09.09,0,0,0,.12-.06v0l1-.38,0,0h0v-.06l0-.06h0l0,0h0l0,0h0l0,0h.12l0,0h0l0,.06h0l0,0h0V32l1,0a.11.11,0,0,0,.07.06.1.1,0,0,0,0-.19Z"/><path class="cls-7" d="M90.7,32.49a.11.11,0,0,0-.08,0L89.88,32l.72.19a.09.09,0,0,0,.08.09.09.09,0,0,0,0-.18.11.11,0,0,0-.1,0l-.77-.2,0,.05h0l0,.06.79.52a.09.09,0,0,0,.07.11.09.09,0,0,0,.12-.07A.11.11,0,0,0,90.7,32.49Z"/><path class="cls-7" d="M90.36,32.67s0,0-.06,0l-.51-.61,0,0v0l-.06,0,.36,1a.05.05,0,0,0,0,0,.09.09,0,0,0,.07.12.11.11,0,0,0,.12-.07.1.1,0,0,0-.07-.12h0l-.33-.86.46.54v0a.11.11,0,0,0,.07.12.1.1,0,0,0,0-.19Z"/><path class="cls-7" d="M89.71,33l0-.92h0v0l-.07,0v0l0,0h0l0,0-.67.63h0a.1.1,0,0,0-.12.07.11.11,0,0,0,.07.12.1.1,0,0,0,.12-.07.09.09,0,0,0,0-.07l.66-.62-.46.7a.09.09,0,0,0-.11.07.1.1,0,0,0,.19.05.11.11,0,0,0,0-.08l.42-.65-.19.73a.1.1,0,0,0-.08.07.09.09,0,0,0,.07.12.09.09,0,0,0,.11-.07.08.08,0,0,0,0-.1l.17-.66,0,.76a.11.11,0,0,0-.06.07.09.09,0,0,0,.07.11.09.09,0,0,0,.12-.07A.09.09,0,0,0,89.71,33Z"/><path class="cls-6" d="M77.68,45.19c.86,10.08,3.09,19,6.33,26.07a45.09,45.09,0,0,0,6.56-17.21c.14-1.08.43-1.59,1.15-1.59,2.66-.07,7.49,1.52,7.49,3.1,0,1-1.3,1.51-3.68,1.73A56.75,56.75,0,0,1,86.6,76.08a26.66,26.66,0,0,0,8.72,9.29c1.8,1.08,3,.72,3.81-.79a42.73,42.73,0,0,0,1.73-4c.72-1.66,2.38-1.44,2.38.29,0,1.51-.22,3.45-.15,5,.08,2,.8,3.38.8,5.11,0,1.58-1.16,2.09-3.32,2.09-2.88,0-6.33-1.37-9.79-4.47A37.19,37.19,0,0,1,83.22,80a49.1,49.1,0,0,1-21.46,12.6c-2,.65-2.73-1.51-.93-2.38,8.78-4,15.41-8.92,20-14.61C77,67.73,74.29,57.5,72.78,45.19H50.39c.14,4,.07,7.63,0,12.17h12c1-1.3,2.23-2.59,3.1-2.59,1.44,0,5.11,2.95,5.11,4.46,0,.87-1,1.73-2.23,2.31-.08,3.74-.29,11.23-1,14.32-.94,6-4.61,7.28-7.71,7.28-1.37,0-1.65-.58-2.37-1.8a4,4,0,0,0-2.81-2c-1.73-.43-1.37-2.16.07-2s3.53.28,4.9.28c1.65,0,2.59-.28,3.09-2.45.8-2.66,1.08-10.94.87-14.9h-13C50,71.26,48.15,84.07,40,92.79c-1.66,1.65-3.6.28-2.31-1.66,5.33-9.07,7.2-18.51,7.2-32.91,0-5.68-.28-11.8-.64-17.13-.08-1.16.43-1.52,1.36-1.37a20.62,20.62,0,0,1,5.62,2.59H72.42c-.36-3.89-.65-8-.86-12.24-.08-1.51.21-1.73,1.51-1.73,3,0,7.49,1,7.49,2.74,0,.93-1.08,1.73-3.24,2.09-.08,3.16,0,6.19.14,9.14H92.37c1.51-2.3,3.45-4.9,4.53-4.9,1.44,0,6.19,4.4,6.27,6.12,0,1.08-1.37,1.66-3.68,1.66Z"/><path class="cls-8" d="M534.35,65.23,531.89,64s.66-1.49,1.26-2.77A9.89,9.89,0,0,0,525.5,61a5.46,5.46,0,0,0-1.23.62,8,8,0,0,0,.24-1.2A8.92,8.92,0,0,0,522,52.9l-1.88,2s-1.23-1.06-2.29-2a9.85,9.85,0,0,0-2.47,7.25,5.74,5.74,0,0,0,.38,1.79,5.89,5.89,0,0,0-.73-.44,9.81,9.81,0,0,0-8.38-.34L508,63.61s-1.69.89-3,1.51c1.1,2,2.87,3.52,6.23,4.77a4,4,0,0,0,1.24.25,10.67,10.67,0,0,0-.79.84,8.2,8.2,0,0,0-1.84,7.55l2.67-.64s.45,1.56.82,2.93c2.15-.7,4.5-1.06,6.27-4.18a5.92,5.92,0,0,0,.37-.81,6.88,6.88,0,0,0,.37.63,8.93,8.93,0,0,0,6.74,4.11l.15-2.74s1.63,0,3.05.06a9.85,9.85,0,0,0-2.76-7.14,6.48,6.48,0,0,0-.91-.82,7.54,7.54,0,0,0,1.24-.12A8.93,8.93,0,0,0,534.35,65.23Zm-10.06,3.41a.43.43,0,0,1-.4-.32l-2.22-.16a2.8,2.8,0,0,1-.09.31l1.65.84a.29.29,0,0,1,.22-.09.33.33,0,0,1,.33.33.33.33,0,1,1-.66,0v0l-1.65-.83a1.48,1.48,0,0,1-.36.43c.32.5.64,1,1,1.51h.06a.33.33,0,1,1-.34.33.32.32,0,0,1,.07-.19l-1-1.49a1.93,1.93,0,0,1-.38.19l.72,2.1a.33.33,0,0,1,.3.32.32.32,0,0,1-.63,0,.33.33,0,0,1,.1-.24l-.72-2.12a1.84,1.84,0,0,1-.33,0h-.05V72a.34.34,0,0,1,.21.3.33.33,0,0,1-.33.33.33.33,0,0,1-.12-.63V69.53a1.67,1.67,0,0,1-.54-.2L517.61,71a.35.35,0,0,1,.06.18.38.38,0,0,1-.76,0,.39.39,0,0,1,.38-.39.42.42,0,0,1,.15,0l1.5-1.64a2.13,2.13,0,0,1-.3-.3l-2,1s0,0,0,0a.39.39,0,0,1-.77,0,.38.38,0,0,1,.39-.39.4.4,0,0,1,.27.12l2-.94a1.5,1.5,0,0,1-.19-.47l-2.72-.08a.32.32,0,0,1-.29.19.32.32,0,1,1,0-.64.33.33,0,0,1,.3.21l2.67.08s0-.1,0-.16a1.84,1.84,0,0,1,.07-.47l-2.68-1.25a.46.46,0,0,1-.35.16.45.45,0,0,1-.46-.46.46.46,0,0,1,.46-.46.47.47,0,0,1,.46.46.19.19,0,0,1,0,.08l2.66,1.24a1.62,1.62,0,0,1,.43-.57l-2.05-2.16a.61.61,0,0,1-.3.08.59.59,0,1,1,.59-.59.55.55,0,0,1-.11.34c.68.73,1.37,1.45,2.06,2.17a1.77,1.77,0,0,1,.76-.27l.06-2.28a.51.51,0,0,1-.37-.49.5.5,0,0,1,.5-.5.5.5,0,0,1,.11,1L520,66.12a1.61,1.61,0,0,1,.73.19l.94-1.59a.45.45,0,0,1-.1-.27A.41.41,0,0,1,522,64a.42.42,0,0,1,.41.41.41.41,0,0,1-.41.4h-.09L521,66.43a1.69,1.69,0,0,1,.4.4L523,65.31a.54.54,0,0,1,0-.22.47.47,0,1,1,.47.47.52.52,0,0,1-.25-.07L521.5,67a1.44,1.44,0,0,1,.15.41l2.25-.34a.4.4,0,0,1,.39-.34.41.41,0,1,1,0,.81.4.4,0,0,1-.36-.23l-2.24.33s0,.1,0,.15a.28.28,0,0,1,0,.09l2.21.16a.42.42,0,0,1,.81.14A.42.42,0,0,1,524.29,68.64Z"/><path class="cls-8" d="M509.34,52l-1.45-.72s.39-.87.74-1.63a5.82,5.82,0,0,0-4.49-.16,3.46,3.46,0,0,0-.72.36,3.22,3.22,0,0,0,.14-.7,5.24,5.24,0,0,0-1.48-4.39L501,45.89l-1.35-1.18A5.82,5.82,0,0,0,498.19,49a3.23,3.23,0,0,0,.22,1l-.43-.26a5.77,5.77,0,0,0-4.91-.19L493.9,51s-1,.52-1.74.88a6.28,6.28,0,0,0,3.66,2.8,2.5,2.5,0,0,0,.72.15c-.15.15-.31.31-.46.49A4.8,4.8,0,0,0,495,59.74l1.57-.37s.26.92.48,1.72c1.26-.41,2.64-.62,3.67-2.46a4.09,4.09,0,0,0,.23-.47,2.71,2.71,0,0,0,.21.37,5.24,5.24,0,0,0,3.95,2.41l.09-1.61s1,0,1.79,0a5.81,5.81,0,0,0-1.62-4.19,4.88,4.88,0,0,0-.53-.48,3.51,3.51,0,0,0,.72-.07A5.25,5.25,0,0,0,509.34,52Zm-5.9,2a.25.25,0,0,1-.24-.18l-1.3-.1a.76.76,0,0,1-.06.18l1,.49a.21.21,0,0,1,.13,0,.2.2,0,0,1,.2.2.19.19,0,0,1-.2.19.18.18,0,0,1-.19-.19v0l-1-.49a.86.86,0,0,1-.21.26l.57.88h0a.2.2,0,0,1,.2.2.19.19,0,0,1-.2.19.18.18,0,0,1-.19-.19.15.15,0,0,1,0-.11c-.19-.29-.38-.58-.56-.88a.7.7,0,0,1-.23.11c.15.42.29.83.43,1.24a.18.18,0,0,1,.17.18.19.19,0,0,1-.18.19.2.2,0,0,1-.19-.19.17.17,0,0,1,.07-.13c-.15-.42-.29-.83-.43-1.25l-.19,0h0v1.41a.19.19,0,0,1-.07.37.19.19,0,0,1-.19-.19.2.2,0,0,1,.12-.18V54.46a.81.81,0,0,1-.32-.11l-.9,1a.2.2,0,0,1,0,.11.22.22,0,0,1-.22.22.23.23,0,1,1,0-.45l.09,0,.88-1a1,1,0,0,1-.18-.17l-1.17.56s0,0,0,0a.22.22,0,0,1-.23.22.22.22,0,0,1-.22-.22.22.22,0,0,1,.22-.23.26.26,0,0,1,.17.07L500,54a.86.86,0,0,1-.11-.28l-1.6,0a.19.19,0,0,1-.17.11.19.19,0,1,1,.18-.26l1.56.05v-.09a.86.86,0,0,1,0-.28l-1.57-.73a.28.28,0,0,1-.21.1.27.27,0,1,1,.27-.27v0l1.56.73a.94.94,0,0,1,.25-.34L499,51.46a.31.31,0,0,1-.17,0,.34.34,0,1,1,0-.68.34.34,0,0,1,.28.54c.4.43.81.85,1.21,1.27a1.1,1.1,0,0,1,.45-.16l0-1.34a.28.28,0,0,1-.22-.28.3.3,0,1,1,.59,0,.29.29,0,0,1-.23.29l0,1.33a1,1,0,0,1,.43.1c.18-.31.36-.62.55-.93a.2.2,0,0,1-.06-.15.23.23,0,0,1,.23-.24.24.24,0,0,1,.24.24.23.23,0,0,1-.24.23h0l-.55.94a.84.84,0,0,1,.23.23l1-.89a.28.28,0,0,1,0-.13.27.27,0,0,1,.27-.27.28.28,0,0,1,.28.27.29.29,0,0,1-.28.28.3.3,0,0,1-.15,0l-1,.92a.92.92,0,0,1,.09.23l1.32-.19a.23.23,0,0,1,.23-.2.23.23,0,0,1,.23.24.23.23,0,0,1-.23.23.24.24,0,0,1-.22-.13l-1.31.19v.14l1.3.09a.23.23,0,0,1,.23-.15.24.24,0,0,1,.24.24A.24.24,0,0,1,503.44,53.94Z"/><path class="cls-8" d="M532.9,38.36l-1.44-.72s.38-.87.73-1.62a5.71,5.71,0,0,0-4.48-.16,2.7,2.7,0,0,0-.72.36,5.28,5.28,0,0,0-1.35-5.09l-1.1,1.17-1.34-1.17a5.75,5.75,0,0,0-1.45,4.25,3.29,3.29,0,0,0,.22,1c-.14-.09-.28-.18-.43-.26a5.75,5.75,0,0,0-4.91-.2l.83,1.44s-1,.52-1.74.89a6.34,6.34,0,0,0,3.66,2.79,2.5,2.5,0,0,0,.72.15c-.15.15-.31.31-.46.49a4.82,4.82,0,0,0-1.08,4.43l1.57-.38s.26.92.48,1.72c1.26-.41,2.64-.62,3.68-2.45.08-.15.15-.31.22-.47a3.35,3.35,0,0,0,.21.36,5.22,5.22,0,0,0,3.95,2.41l.1-1.6,1.78,0a5.77,5.77,0,0,0-1.62-4.18,3,3,0,0,0-.53-.48,5.85,5.85,0,0,0,.72-.07A5.25,5.25,0,0,0,532.9,38.36Zm-5.9,2a.23.23,0,0,1-.23-.19l-1.31-.09a1.21,1.21,0,0,1-.05.18l1,.49a.17.17,0,0,1,.12,0,.2.2,0,1,1-.19.19h0l-1-.49a.82.82,0,0,1-.21.25l.57.89h0a.2.2,0,1,1-.19.19.21.21,0,0,1,0-.11l-.56-.87a1.51,1.51,0,0,1-.22.11l.42,1.23a.19.19,0,0,1,.18.19.19.19,0,0,1-.19.18.18.18,0,0,1-.18-.18.17.17,0,0,1,.06-.14c-.14-.42-.29-.83-.43-1.25a.62.62,0,0,1-.19,0h0v1.42a.19.19,0,0,1-.07.36.19.19,0,0,1-.19-.19.18.18,0,0,1,.12-.17V40.88a1.21,1.21,0,0,1-.32-.11l-.9,1a.17.17,0,0,1,0,.1.22.22,0,0,1-.44,0,.22.22,0,0,1,.22-.22l.09,0,.88-1a.77.77,0,0,1-.18-.18l-1.16.56v0a.23.23,0,1,1-.22-.22.2.2,0,0,1,.16.07l1.14-.55a1,1,0,0,1-.11-.28l-1.6,0a.17.17,0,0,1-.17.11.18.18,0,0,1-.18-.18.18.18,0,0,1,.18-.19.2.2,0,0,1,.18.12l1.57,0a.28.28,0,0,1,0-.09,1.26,1.26,0,0,1,0-.28l-1.57-.74a.27.27,0,0,1-.21.1.27.27,0,1,1,.27-.27v0l1.56.72a.9.9,0,0,1,.25-.33l-1.2-1.27a.35.35,0,0,1-.18.05.35.35,0,1,1,.35-.35.38.38,0,0,1-.07.21c.41.42.81.84,1.21,1.27a1,1,0,0,1,.45-.17l0-1.33a.3.3,0,0,1-.22-.29.3.3,0,1,1,.37.29c0,.44,0,.89,0,1.33a1.05,1.05,0,0,1,.43.11l.55-.93a.23.23,0,0,1-.06-.16.24.24,0,1,1,.23.24h0l-.55.93a1.36,1.36,0,0,1,.24.24l1-.9a.24.24,0,0,1,0-.12.28.28,0,1,1,.27.27.23.23,0,0,1-.14,0l-1,.91a1.17,1.17,0,0,1,.09.24l1.32-.2a.24.24,0,0,1,.23-.2.24.24,0,1,1,0,.48.22.22,0,0,1-.21-.14l-1.32.2s0,.06,0,.09a.11.11,0,0,1,0,0l1.3.09a.25.25,0,0,1,.23-.16.25.25,0,0,1,0,.49Z"/><path class="cls-9" d="M520.5,79.23s-8.37,9.6-22.66,4.69"/><path class="cls-9" d="M541.08,63.83s2.16,26.36-21.37,29.7"/><path class="cls-8" d="M539.43,58.94a7.84,7.84,0,0,1,1-2.63l.17-.28,1.36,2.1c.4-.45,1.3-1.47,2-2.16a10.87,10.87,0,0,0-4.61-5.44c-2,2.11-3.29,5.62-2.84,7.73A7.76,7.76,0,0,1,539.43,58.94Z"/><path class="cls-8" d="M542.07,58.6l-.18.21-1.29-2a6,6,0,0,0-.78,2.43v.31l-.28-.13a8.25,8.25,0,0,0-2.92-.75c.43,1.21,1.62,2.21,3.93,2.77.74.18,4.06-1.95,3.52-5C543.36,57.14,542.48,58.13,542.07,58.6Z"/><path class="cls-8" d="M538.64,60.69a6.52,6.52,0,0,1,1.79,4c0,2.19,1.93,1,1.93-1.64s.39-3.16.39-3.16"/><path class="cls-8" d="M516.38,84.65a.16.16,0,0,1,.15.16.16.16,0,0,1-.16.16,11.42,11.42,0,0,0-3.3.52,12.65,12.65,0,0,1,1.9.74,11.74,11.74,0,0,1,3.14-.46.16.16,0,0,1,.16.16.16.16,0,0,1-.16.15,10.83,10.83,0,0,0-2.71.36q.72.39,1.41.84a11.67,11.67,0,0,1,3.05-.44.16.16,0,1,1,0,.32,10.51,10.51,0,0,0-2.71.36c.37.25.72.51,1.07.79A11,11,0,0,1,521,88a.16.16,0,0,1,.15.16.16.16,0,0,1-.16.16,10.5,10.5,0,0,0-2.43.29c.4.34.78.69,1.15,1a10.68,10.68,0,0,1,2.16-.22.14.14,0,0,1,.15.16.15.15,0,0,1-.15.15,10.65,10.65,0,0,0-1.9.18,14.18,14.18,0,0,1,2.43,3.24c1.61-5.49-.94-9.19-5.35-9.9a7.72,7.72,0,0,0-6.8,1.91,8.17,8.17,0,0,1,2.29.22A12.57,12.57,0,0,1,516.38,84.65Z"/><path class="cls-8" d="M507,79.68a.15.15,0,0,0,0-.21.16.16,0,0,0-.22,0,11.62,11.62,0,0,1-2.14,2.57,13.18,13.18,0,0,0,.34-2,12.22,12.22,0,0,0,2-2.46.17.17,0,0,0-.06-.22.16.16,0,0,0-.21.06A11.08,11.08,0,0,1,505,79.6,14.94,14.94,0,0,0,505,78a11.29,11.29,0,0,0,1.95-2.4.15.15,0,0,0-.27-.15,10.89,10.89,0,0,1-1.7,2.13c0-.44-.08-.88-.14-1.32a10.58,10.58,0,0,0,1.71-2.16.16.16,0,0,0-.05-.22.16.16,0,0,0-.22.06,9.82,9.82,0,0,1-1.5,1.93c-.08-.51-.18-1-.3-1.52a10.24,10.24,0,0,0,1.3-1.74.14.14,0,0,0-.06-.21.15.15,0,0,0-.21.06A10.26,10.26,0,0,1,504.37,74a14,14,0,0,0-1.53-3.75c5.55,1.44,7.4,5.53,5.75,9.68a7.72,7.72,0,0,1-5.14,4.85,8,8,0,0,0,1-2.08A12,12,0,0,0,507,79.68Z"/><path class="cls-10" d="M541.59,26.47H500.76a13,13,0,0,1-13,13V79.64a13,13,0,0,1,13,13c0,.23,0,.47,0,.7H541.6c0-.23,0-.47,0-.7a13,13,0,0,1,13-13V39.51A13,13,0,0,1,541.59,26.47Z"/></g></g></svg>