<svg xmlns="http://www.w3.org/2000/svg" xmlns:xlink="http://www.w3.org/1999/xlink" viewBox="0 0 2732 1536"><defs><style>.cls-1{fill:none;}.cls-2{fill:#9edbfd;}.cls-3{fill:#d9f6fe;}.cls-4{fill:url(#新規パターン_8);}</style><pattern id="新規パターン_8" data-name="新規パターン 8" width="75.33" height="47.33" patternUnits="userSpaceOnUse" viewBox="0 0 75.33 47.33"><rect class="cls-1" width="75.33" height="47.33"/><circle class="cls-2" cy="-47.33" r="50"/><circle class="cls-2" cx="75.33" cy="-47.33" r="50"/><circle class="cls-2" cx="-37.67" cy="-23.67" r="50"/><circle class="cls-3" cx="-37.67" cy="-23.67" r="40"/><circle class="cls-2" cx="37.67" cy="-23.67" r="50"/><circle class="cls-3" cx="37.67" cy="-23.67" r="40"/><circle class="cls-2" cx="37.67" cy="-23.67" r="30"/><circle class="cls-2" cx="113" cy="-23.67" r="50"/><circle class="cls-3" cx="113" cy="-23.67" r="40"/><circle class="cls-2" r="50"/><circle class="cls-3" r="40"/><circle class="cls-2" r="30"/><circle class="cls-3" r="20"/><circle class="cls-2" cx="75.33" r="50"/><circle class="cls-3" cx="75.33" r="40"/><circle class="cls-2" cx="75.33" r="30"/><circle class="cls-3" cx="75.33" r="20"/><circle class="cls-2" cx="-37.67" cy="23.67" r="50"/><circle class="cls-3" cx="-37.67" cy="23.67" r="40"/><circle class="cls-2" cx="37.67" cy="23.67" r="50"/><circle class="cls-3" cx="37.67" cy="23.67" r="40"/><circle class="cls-2" cx="37.67" cy="23.67" r="30"/><circle class="cls-3" cx="37.67" cy="23.67" r="20"/><circle class="cls-2" cx="113" cy="23.67" r="50"/><circle class="cls-3" cx="113" cy="23.67" r="40"/><circle class="cls-2" cy="47.33" r="50"/><circle class="cls-3" cy="47.33" r="40"/><circle class="cls-2" cy="47.33" r="30"/><circle class="cls-3" cy="47.33" r="20"/><circle class="cls-2" cx="75.33" cy="47.33" r="50"/><circle class="cls-3" cx="75.33" cy="47.33" r="40"/><circle class="cls-2" cx="75.33" cy="47.33" r="30"/><circle class="cls-3" cx="75.33" cy="47.33" r="20"/><circle class="cls-2" cx="-37.67" cy="71" r="50"/><circle class="cls-3" cx="-37.67" cy="71" r="40"/><circle class="cls-2" cx="37.67" cy="71" r="50"/><circle class="cls-3" cx="37.67" cy="71" r="40"/><circle class="cls-2" cx="37.67" cy="71" r="30"/><circle class="cls-2" cx="113" cy="71" r="50"/><circle class="cls-3" cx="113" cy="71" r="40"/><circle class="cls-2" cy="94.67" r="50"/><circle class="cls-2" cx="75.33" cy="94.67" r="50"/></pattern></defs><g id="レイヤー_2" data-name="レイヤー 2"><g id="レイヤー_1-2" data-name="レイヤー 1"><rect class="cls-4" width="2732" height="1536"/></g></g></svg>