<svg xmlns="http://www.w3.org/2000/svg" viewBox="0 0 519.34 71.03"><defs><style>.cls-1{fill:#e00545;}.cls-2{fill:#d3bd02;}.cls-3{fill:#fff;}.cls-4{fill:#d07170;}.cls-5{fill:#ffa2cb;}.cls-5,.cls-6{fill-rule:evenodd;}.cls-6,.cls-7{fill:none;stroke:#ffa2cb;stroke-miterlimit:10;stroke-width:4px;}</style></defs><g id="レイヤー_2" data-name="レイヤー 2"><g id="レイヤー_1-2" data-name="レイヤー 1"><path class="cls-1" d="M107.42,14.45c.65,25.57,13.25,40.9,29.81,46.38,2.16.72,1.94,1.94.07,2.52a5,5,0,0,0-3.17,2c-.79,1-1.51,1.8-3.38.79-12.39-6.69-21.39-18.5-24.48-36.5a45.55,45.55,0,0,1-5.76,17c-5,8.21-13.18,16.2-26.5,21.17-2,.72-2.81-1.44-1.08-2.38C84.59,59,91.22,52.62,95.75,45.13c5.91-9.72,6.41-20.16,6.27-27.72-.07-3.53-.29-6.63-.58-9.8-.07-.72.15-1.08,1.08-1.08,2.38,0,9.36,1.15,9.36,3,0,1-1.22,2.24-4.39,2.74Z"/><path class="cls-2" d="M204,34.18c0,3.46-3.31,5.12-7.92,6.63-3,1-9.79,3.09-14.54,4.89,0,1.66.07,3.6.07,5,0,1.73-.72,3-2.3,3a2.92,2.92,0,0,1-3-3c0-.79.15-1.72.22-3-4.9,2.45-7.78,4.75-7.78,8.14,0,3.17,3.82,4.39,7.63,4.39,6,0,9.65-1.44,12.6-1.44,2.24,0,4.4.65,4.4,2.88s-5,3.82-14.84,3.82c-9.5,0-14-3.39-14-8.72,0-4.24,2.88-7.63,12.24-12.24a28.31,28.31,0,0,0-.07-3.52c-.29-3.53-2-7.35-5.69-7.35-4.53,0-6.84,5.91-12.09,12.53-1.08,1.37-2,2.66-3.68,2.66a2.46,2.46,0,0,1-2.59-2.59c-.07-1.29.43-2.73,2.31-4.61C159.69,37,165.52,30.58,169.12,23a68,68,0,0,1-8.93.58c-5.18,0-8.06-2.6-8.93-8.28-.21-1.66.8-2,2-.94,3.53,3.24,5.54,4.75,9.72,4.75a73.75,73.75,0,0,0,8-.43,21.76,21.76,0,0,0,1.44-4.75c.22-1.51.43-2.74-.72-4s-2.16-2-2.16-2.88,2.23-1.44,3.31-1.44c2.31,0,5.4.79,5.4,2.52,0,1.51-1.29,6.05-2.73,9.79C183.16,16.18,186,13,189,13c1.59,0,3.39.87,3.46,2.67S190,18.27,188,19.06a109.74,109.74,0,0,1-14.76,3.39c-1.37,2.37-4.11,7.05-5.26,9.28,4.82-1.29,9.36-.79,11.88,5.33,4.32-7.49,9.36-10.22,14.4-10.22C199.44,26.84,204,30,204,34.18Zm-5.76-1.29c0-2-1.72-3.24-4.75-3.24s-7.06,2.16-9.43,6.12a16.56,16.56,0,0,0-2.45,6.62c4.61-2,9.22-3.74,10.95-4.54C196.12,36.27,198.28,35.62,198.28,32.89Z"/><path class="cls-1" d="M236.23,18.56c1.15-1.44,2.59-2.95,3.31-2.95,1.44-.08,5.69,4.1,5.76,5.83,0,.86-1.59,1.65-3.6,1.94a55.46,55.46,0,0,1-8.5,11.81c-.14,3.82-.14,12.67-.14,14.47,0,2.88.07,14.84.07,16.71,0,1.58-1.15,2.3-3.31,2.3a1.8,1.8,0,0,1-2-1.94c.07-4.61.36-17,.14-26.5A64.92,64.92,0,0,1,216.5,48c-1.88,1.08-3.1-.87-1.37-2.23A71.53,71.53,0,0,0,227.8,34.69c-.07-1.3-.14-2.52-.22-3.53a.9.9,0,0,1,1-.94,12.82,12.82,0,0,1,2.31.72,44.25,44.25,0,0,0,5.54-9.5h-18.5c-.94,0-1.59-.29-1.59-1.44s.65-1.44,1.59-1.44h9.43c.07-4.47.07-10.73-.22-13.68a.91.91,0,0,1,1-1.08c1.22,0,7.27.28,7.27,2,0,1.15-1.15,1.66-3,2.09V18.56Z"/><path class="cls-2" d="M235.94,37.21c-.87-1.08-.29-2.38,1.37-2,3.88,1,7.92,3.53,8.2,6.7a2.72,2.72,0,0,1-2.59,3.24c-1.73.14-2.59-1.44-3.89-3.6C238.1,40.16,237,38.58,235.94,37.21Z"/><path class="cls-1" d="M261.43,38.07c0,.94-.72,1.3-2.45,1.66-1.73,15.41-7.78,23.69-21,28.8-2.52.94-3.31-1.22-.93-2.38C249,60,253.15,51.1,253.94,37.28c0-.72.21-1.22,1.22-1.15C257.54,36.13,261.43,36.63,261.43,38.07Z"/><path class="cls-2" d="M252,36.2c0,1.58-1,2.3-3.16,2.3a1.8,1.8,0,0,1-2-2c0-1.52.22-10.88.22-13.54,0-3.24-.15-11-.58-15.12-.07-.79.36-1.3,1.3-1a30.47,30.47,0,0,1,5.47,2.59H270.5c1-1.44,2.38-3,3.17-3,1.37,0,5.47,3.09,5.47,4.68,0,.94-1.15,1.51-2.38,2-.14,5.54.08,19.65.08,22.46,0,2.23-1.16,2.81-3,2.81-1.65,0-2.16-1.3-2.16-2.45V34.69H252Zm19.66-4.39c.07-5.69.15-15.41.15-19.52H252c-.07,2.31-.07,8.64-.07,10.8l.07,8.72Z"/><path class="cls-1" d="M283.17,64.07c0,2.23-3.31,3.6-10.94,3.6-8.07,0-9.58-.94-9.58-6.41,0-2.24.36-16.49-.14-23.91-.07-1,.21-1.29,1.22-1.29,2.31,0,6.19.71,6.19,2,0,.79-.72,1.3-2.3,1.59-.22,5.9-.22,16.27-.14,20.16,0,2.66.36,3.17,4.68,3.17,3.74,0,5.11-.58,5.83-2.16a48.36,48.36,0,0,0,1.51-5.33c.36-1.73,2.31-1.52,2.31.28C281.81,62.63,283.17,62,283.17,64.07Z"/><path class="cls-1" d="M310.82,36.56a6.11,6.11,0,0,1-6.12-3.82,8.33,8.33,0,0,1-.72-4.89c.21-1.73,1.51-2,2.23-1.16,1.15,1.37,2.81,4.11,5.9,4.11,4.47,0,8.36-1.15,12.46-1.15,7.2,0,13.9,4.53,13.9,15.12,0,13.82-11.52,20.88-26.93,20.88-2.74,0-3-2.3-.22-2.74,13.39-2.08,21.53-7.85,21.53-19.15,0-5.76-2.59-10.37-7.49-10.37S314.85,36.56,310.82,36.56Z"/><path class="cls-2" d="M321.55,9.48c4.6,1.45,8.49,4.54,8.49,7.78,0,1.15-.79,2-2.52,2.45a52,52,0,0,1-8.78,1.44c-1.23.07-1.59-1.15-.65-1.73a19.58,19.58,0,0,0,3-2c1.08-.94,1.08-1.88-.07-2.81-2-1.66-5.33-2.95-8.14-3.89-1.51-.51-1.44-2.16.44-2.31A24.74,24.74,0,0,1,321.55,9.48Z"/><path class="cls-1" d="M425.66,27.41a5.21,5.21,0,0,0-2.88,2.09c-1.08,1.44-1.66,1.87-3.38,1.3-8.5-2.74-18.44-9.72-25-21-6.84,10.08-17.71,21-32.33,26.64-1.87.72-2.95-1.3-1.15-2.31,14.18-7.92,24.34-18.65,29.81-30.6a1.07,1.07,0,0,1,1.37-.72c2.66.79,6.48,2.59,6.19,3.82-.15.57-.79.93-2.16.64,7.2,10,18,15.34,29.16,17.79C427.53,25.54,427.1,26.91,425.66,27.41Z"/><path class="cls-2" d="M411.48,41.74c1.58-2.37,3.67-5.18,4.82-5.18,1.51,0,6.77,4.54,6.77,6.34,0,1.08-1.37,1.72-4,1.72H393c1.37.58,2.38,1.3,2.31,2.09,0,1.3-2,1.66-3.82,1.66a108.27,108.27,0,0,1-6.77,11.52c8.79-.29,16.35-1.08,22.54-1.87a42.89,42.89,0,0,0-4.25-4.75c-1-1,0-2.67,1.66-2,8.57,3,12.81,8.71,13.39,12.24.43,2.38-.65,3.89-2.66,4.18-1.66.21-2.45-.58-3.46-2.24-.72-1.15-1.51-2.8-2.59-4.53-8.5,2.16-20,3.67-35.29,4.89-.57,1.66-1.51,3.1-2.73,3-1.59-.29-2.31-3.82-2.23-7.85,0-.72.36-.87.93-.87,3.6.07,7.13.07,10.44,0a76,76,0,0,0,6.27-15.41H366.47c-.93,0-1.58-.28-1.58-1.44s.65-1.44,1.58-1.44Z"/><path class="cls-2" d="M380.37,33.1c-.94,0-1.59-.29-1.59-1.44s.65-1.44,1.59-1.44h16.56c1.51-2.3,3.53-5,4.68-5,1.44,0,6.62,4.4,6.62,6.2,0,1-1.51,1.65-4,1.65Z"/><path d="M44.69,32.27c.92-5.93,2.33-11.75,3.4-17.64a21.88,21.88,0,0,1,4.77-9.77l.39.11c.74,5-.71,9.68-2.75,14.11Q48,25.8,45.07,32.38l-.38-.11Z"/><circle class="cls-1" cx="52.23" cy="7.95" r="5.95"/><path class="cls-3" d="M52.41,7.33a4.65,4.65,0,0,1,.82-2.4c1-1,3.09,1.27,1.67,2.1A3.84,3.84,0,0,1,52.41,7.33Z"/><path class="cls-3" d="M52.41,7.33a3.87,3.87,0,0,1,2.55,0c.9.55-.44,3.12-1.54,2.21A3.43,3.43,0,0,1,52.41,7.33Z"/><path class="cls-3" d="M52.48,7.42a4.17,4.17,0,0,1,.74,2.35c-.15,1-3,.83-2.64-.54C50.93,8.05,52.48,7.42,52.48,7.42Z"/><path class="cls-3" d="M52.41,7.33a4.41,4.41,0,0,1-2,1.66c-1.08.34-1.74-2.84-.32-2.83A2.69,2.69,0,0,1,52.41,7.33Z"/><path class="cls-3" d="M52.48,7.42a5.36,5.36,0,0,1-2.14-1.48C49.51,4.65,53,3.3,52.93,5.19A7.5,7.5,0,0,1,52.48,7.42Z"/><path class="cls-4" d="M52.68,7.8A.46.46,0,1,0,52,7.74.46.46,0,0,0,52.68,7.8Z"/><path class="cls-4" d="M53.62,7.38a.09.09,0,0,0-.11.06l-.89,0,.63-.15a.13.13,0,0,0,.06,0,.11.11,0,0,0,.12-.07.1.1,0,0,0-.19-.05h0l-.68.16.6-.44,0,0a.1.1,0,0,0,.12-.07.1.1,0,0,0-.07-.12.09.09,0,0,0-.12.07v.05l-.62.45L53,6.57h0A.1.1,0,1,0,53,6.46a.09.09,0,0,0,0,.07l-.54.73.19-.64a.08.08,0,0,0,.08-.07.09.09,0,0,0-.06-.12.1.1,0,0,0-.12.07.09.09,0,0,0,0,.1l-.17.61,0-.73a.09.09,0,0,0,.06-.06.1.1,0,0,0-.07-.12.09.09,0,0,0-.12.07.08.08,0,0,0,.06.11l0,.74-.22-.57a.05.05,0,0,0,0-.05.08.08,0,0,0-.06-.11.09.09,0,1,0,0,.18h0l.23.59-.46-.71a.05.05,0,0,0,0,0,.09.09,0,0,0-.07-.11.09.09,0,0,0-.12.06.1.1,0,0,0,.07.12h.05l.42.68-.73-.5a.09.09,0,0,0-.07-.11.1.1,0,0,0-.12.07.09.09,0,0,0,.07.12.12.12,0,0,0,.08,0l.75.5-.74-.2A.1.1,0,0,0,51.36,7a.11.11,0,0,0-.12.07.1.1,0,0,0,.07.12.12.12,0,0,0,.11,0l.73.21-.84.08a.09.09,0,0,0-.06-.06.1.1,0,0,0-.12.07.1.1,0,0,0,.07.12.09.09,0,0,0,.12-.07l.76-.07-.88.35-.05,0a.11.11,0,0,0-.12.07A.1.1,0,0,0,51.1,8a.09.09,0,0,0,.12-.07v0l1-.37,0,0h0v0l0-.06h0l0,0h0l.05,0v0l0,0h.12l0,0h0l0,.06h0l0,0h0v0l1,0a.11.11,0,0,0,.07.06.1.1,0,1,0,0-.19Z"/><path class="cls-4" d="M53.41,8a.08.08,0,0,0-.08,0l-.74-.48.72.18a.1.1,0,0,0,.08.1.09.09,0,0,0,.11-.07.09.09,0,0,0-.06-.12.11.11,0,0,0-.1,0l-.77-.2,0,0h0l0,.06.79.51a.1.1,0,0,0,.07.12.1.1,0,0,0,.12-.07A.11.11,0,0,0,53.41,8Z"/><path class="cls-4" d="M53.07,8.2H53l-.51-.61,0,0v0l-.06,0,.36,1a.09.09,0,0,0,0,.05.1.1,0,0,0,.07.12.11.11,0,0,0,.12-.07.1.1,0,0,0-.07-.12h0L52.5,7.7l.46.54a0,0,0,0,1,0,0,.11.11,0,0,0,.07.12.1.1,0,0,0,.12-.07A.1.1,0,0,0,53.07,8.2Z"/><path class="cls-4" d="M52.43,8.52l0-.91h0v0H52.3v0l0,0h0l0,0-.68.63h0a.09.09,0,1,0-.05.18.09.09,0,0,0,.12-.06.08.08,0,0,0,0-.07l.66-.62-.46.7a.09.09,0,0,0-.11.07.1.1,0,0,0,.07.12.09.09,0,0,0,.1-.15l.42-.65-.19.73a.08.08,0,0,0-.08.07.09.09,0,0,0,.07.12.09.09,0,0,0,.11-.07.08.08,0,0,0,0-.1l.17-.66,0,.76a.09.09,0,0,0-.06.06.1.1,0,1,0,.19.05A.11.11,0,0,0,52.43,8.52Z"/><path class="cls-2" d="M40.39,20.72c.86,10.08,3.09,19,6.33,26.06a45,45,0,0,0,6.56-17.21c.14-1.08.43-1.58,1.15-1.58,2.66-.07,7.49,1.51,7.49,3.1,0,1-1.3,1.51-3.68,1.72a56.89,56.89,0,0,1-8.92,18.8A26.72,26.72,0,0,0,58,60.9c1.8,1.08,3,.72,3.81-.8a42.73,42.73,0,0,0,1.73-4c.72-1.65,2.38-1.44,2.38.29,0,1.51-.22,3.46-.15,5,.08,2,.8,3.39.8,5.12,0,1.58-1.16,2.08-3.32,2.08-2.88,0-6.33-1.36-9.79-4.46a37.39,37.39,0,0,1-7.56-8.71A49.2,49.2,0,0,1,24.47,68.1c-2,.65-2.73-1.51-.93-2.38,8.78-4,15.41-8.93,20-14.62C39.67,43.26,37,33,35.49,20.72H13.1c.14,4,.07,7.63,0,12.17h12c1-1.3,2.23-2.6,3.1-2.6,1.44,0,5.11,3,5.11,4.47,0,.86-1,1.73-2.23,2.3-.08,3.75-.29,11.24-1,14.33-.94,6-4.61,7.28-7.71,7.28-1.37,0-1.65-.58-2.37-1.81a4,4,0,0,0-2.81-2c-1.73-.43-1.37-2.16.07-2s3.53.29,4.9.29c1.65,0,2.59-.29,3.09-2.45.8-2.66,1.08-10.94.87-14.9H13c-.36,11-2.16,23.83-10.29,32.54C1.07,70-.87,68.6.42,66.66c5.33-9.07,7.2-18.51,7.2-32.91,0-5.69-.28-11.81-.64-17.14-.08-1.15.43-1.51,1.36-1.36A20.62,20.62,0,0,1,14,17.84H35.13c-.36-3.89-.65-8-.86-12.24-.08-1.52.21-1.73,1.51-1.73,3,0,7.49,1,7.49,2.73,0,.94-1.08,1.73-3.24,2.09-.08,3.17,0,6.2.14,9.15H55.08c1.51-2.31,3.45-4.9,4.53-4.9,1.44,0,6.19,4.39,6.27,6.12,0,1.08-1.37,1.66-3.68,1.66Z"/><path class="cls-5" d="M497.06,40.76l-2.46-1.22s.66-1.49,1.26-2.78a9.85,9.85,0,0,0-7.65-.27,5.08,5.08,0,0,0-1.23.62,8,8,0,0,0,.24-1.2,8.92,8.92,0,0,0-2.53-7.48l-1.88,2s-1.23-1.06-2.29-2a9.84,9.84,0,0,0-2.47,7.24,5.8,5.8,0,0,0,.38,1.8,7.49,7.49,0,0,0-.73-.45,9.83,9.83,0,0,0-8.38-.33l1.42,2.45s-1.69.89-3,1.51c1.1,2,2.87,3.52,6.23,4.77a4.27,4.27,0,0,0,1.24.25,10.67,10.67,0,0,0-.79.84,8.18,8.18,0,0,0-1.84,7.54l2.67-.63s.45,1.56.82,2.93c2.15-.7,4.5-1.06,6.27-4.19a7.33,7.33,0,0,0,.38-.8,4.33,4.33,0,0,0,.36.62,8.89,8.89,0,0,0,6.74,4.11l.15-2.74s1.63,0,3.05.07a9.85,9.85,0,0,0-2.76-7.14,6.48,6.48,0,0,0-.91-.82,8.81,8.81,0,0,0,1.24-.12A8.93,8.93,0,0,0,497.06,40.76ZM487,44.16a.4.4,0,0,1-.39-.31l-2.23-.16c0,.1-.06.21-.09.31l1.65.83a.33.33,0,0,1,.22-.08.33.33,0,1,1-.33.33v0l-1.65-.84a1.51,1.51,0,0,1-.36.44l1,1.51a.11.11,0,0,1,.06,0,.34.34,0,1,1-.34.34.29.29,0,0,1,.07-.19c-.32-.5-.63-1-.95-1.49a1.66,1.66,0,0,1-.38.18l.72,2.11a.32.32,0,1,1-.33.31.33.33,0,0,1,.1-.23L483,45.05a1.84,1.84,0,0,1-.33,0h-.05v2.41a.32.32,0,0,1-.12.62.32.32,0,0,1-.12-.62V45.05a1.65,1.65,0,0,1-.54-.19l-1.54,1.67a.43.43,0,0,1,.06.18.38.38,0,1,1-.38-.38.28.28,0,0,1,.15,0l1.5-1.64a2.13,2.13,0,0,1-.3-.3l-2,1v0a.39.39,0,1,1-.77,0,.38.38,0,0,1,.39-.38.36.36,0,0,1,.27.12l1.95-.94a1.6,1.6,0,0,1-.19-.47l-2.72-.08a.32.32,0,0,1-.61-.13.32.32,0,0,1,.62-.12l2.67.08s0-.1,0-.15a2,2,0,0,1,.07-.48l-2.68-1.24a.45.45,0,0,1-.35.16.45.45,0,0,1-.46-.46.46.46,0,0,1,.46-.46.47.47,0,0,1,.46.46.22.22,0,0,1,0,.08l2.66,1.24a1.76,1.76,0,0,1,.43-.58l-2.05-2.16a.62.62,0,0,1-.3.09.59.59,0,0,1-.58-.59.59.59,0,0,1,1.17,0,.55.55,0,0,1-.11.34c.68.73,1.37,1.45,2.06,2.17a1.66,1.66,0,0,1,.76-.28l.06-2.27a.52.52,0,0,1-.37-.49.5.5,0,0,1,.5-.51.51.51,0,0,1,.51.51.5.5,0,0,1-.4.49l-.06,2.27a1.61,1.61,0,0,1,.73.18l.94-1.59a.4.4,0,0,1,.3-.67.41.41,0,1,1,0,.81l-.09,0-.94,1.6a1.52,1.52,0,0,1,.4.4l1.66-1.53a.47.47,0,1,1,.42.26.44.44,0,0,1-.25-.08l-1.7,1.56a1.49,1.49,0,0,1,.15.4l2.25-.33a.4.4,0,0,1,.39-.34.41.41,0,1,1,0,.81.41.41,0,0,1-.36-.23l-2.24.33a.76.76,0,0,1,0,.15.28.28,0,0,1,0,.09l2.21.15a.43.43,0,0,1,.39-.27.42.42,0,0,1,.42.42A.41.41,0,0,1,487,44.16Z"/><path class="cls-5" d="M472.05,27.47l-1.45-.71s.39-.88.74-1.63a5.82,5.82,0,0,0-4.49-.16,3,3,0,0,0-.72.36,3.34,3.34,0,0,0,.14-.7,5.24,5.24,0,0,0-1.48-4.39l-1.1,1.17s-.73-.62-1.35-1.17a5.8,5.8,0,0,0-1.44,4.25,3.29,3.29,0,0,0,.22,1.05c-.14-.09-.28-.18-.43-.26a5.75,5.75,0,0,0-4.91-.2l.83,1.44s-1,.52-1.74.89a6.32,6.32,0,0,0,3.66,2.8,2.49,2.49,0,0,0,.72.14c-.15.15-.31.31-.46.49a4.82,4.82,0,0,0-1.08,4.43l1.57-.37s.26.91.48,1.71c1.26-.41,2.64-.62,3.67-2.45a4.09,4.09,0,0,0,.23-.47,3.47,3.47,0,0,0,.21.37,5.24,5.24,0,0,0,3.95,2.41l.09-1.61s1,0,1.79,0a5.8,5.8,0,0,0-1.62-4.19,3.43,3.43,0,0,0-.53-.48,5.85,5.85,0,0,0,.72-.07A5.25,5.25,0,0,0,472.05,27.47Zm-5.9,2a.25.25,0,0,1-.24-.19l-1.3-.09a1.27,1.27,0,0,1-.06.18l1,.49a.21.21,0,0,1,.13-.05.2.2,0,1,1,0,.39.19.19,0,0,1-.19-.19v0l-1-.49a.72.72,0,0,1-.21.25l.57.89h0a.2.2,0,1,1,0,.39.19.19,0,0,1-.19-.19.17.17,0,0,1,0-.12l-.56-.87A.91.91,0,0,1,464,30l.42,1.24a.17.17,0,0,1,.17.18.18.18,0,0,1-.18.18.19.19,0,0,1-.19-.18.19.19,0,0,1,.07-.14c-.15-.41-.29-.83-.43-1.24l-.19,0h0v1.42a.19.19,0,0,1-.07.37.19.19,0,0,1-.19-.19.2.2,0,0,1,.12-.18V30a1.1,1.1,0,0,1-.32-.11l-.9,1a.19.19,0,0,1,0,.1.23.23,0,1,1-.22-.22l.09,0,.88-1a1,1,0,0,1-.18-.17l-1.17.56s0,0,0,0a.23.23,0,1,1-.45,0,.22.22,0,0,1,.22-.22.26.26,0,0,1,.17.07l1.14-.55a1,1,0,0,1-.11-.28l-1.6-.05a.18.18,0,0,1-.17.12.2.2,0,0,1-.19-.19.19.19,0,0,1,.19-.19.2.2,0,0,1,.18.12l1.56.05V29a.86.86,0,0,1,0-.28L461.08,28a.27.27,0,0,1-.21.09.27.27,0,1,1,.27-.27v.05l1.56.73a.94.94,0,0,1,.25-.34L461.75,27a.37.37,0,0,1-.18.05.34.34,0,0,1-.34-.34.35.35,0,0,1,.34-.35.35.35,0,0,1,.35.35.37.37,0,0,1-.07.2l1.21,1.27a1,1,0,0,1,.45-.16l0-1.34a.3.3,0,0,1-.22-.28.3.3,0,1,1,.59,0,.28.28,0,0,1-.23.28l0,1.33a1.24,1.24,0,0,1,.43.11c.18-.31.36-.62.55-.93a.23.23,0,0,1,.17-.39A.23.23,0,0,1,465,27a.24.24,0,0,1-.24.24h-.05c-.18.31-.37.62-.55.94a1,1,0,0,1,.24.23l1-.89a.28.28,0,0,1,.24-.41.28.28,0,0,1,0,.56.3.3,0,0,1-.15-.05l-1,.92a.92.92,0,0,1,.09.23l1.32-.19a.23.23,0,0,1,.46,0,.23.23,0,0,1-.23.24.24.24,0,0,1-.22-.13l-1.31.19v.14l1.3.09a.24.24,0,0,1,.23-.16.25.25,0,0,1,0,.49Z"/><path class="cls-5" d="M495.61,13.89l-1.44-.72s.38-.87.73-1.63a5.79,5.79,0,0,0-4.48-.16,2.73,2.73,0,0,0-.72.37,5.57,5.57,0,0,0,.14-.71,5.23,5.23,0,0,0-1.49-4.39l-1.1,1.18s-.72-.62-1.34-1.18a5.78,5.78,0,0,0-1.45,4.25,3.35,3.35,0,0,0,.22,1.06,3.78,3.78,0,0,0-.43-.26,5.75,5.75,0,0,0-4.91-.2l.83,1.44s-1,.52-1.74.88a6.31,6.31,0,0,0,3.66,2.8,2.5,2.5,0,0,0,.72.15c-.15.15-.31.31-.46.49a4.8,4.8,0,0,0-1.08,4.42l1.57-.37s.26.92.48,1.72c1.26-.41,2.64-.62,3.68-2.45.08-.16.15-.31.22-.48a2.71,2.71,0,0,0,.21.37,5.22,5.22,0,0,0,3.95,2.41l.1-1.61,1.78,0a5.81,5.81,0,0,0-1.62-4.19,3.53,3.53,0,0,0-.53-.48,3.51,3.51,0,0,0,.72-.07A5.23,5.23,0,0,0,495.61,13.89Zm-5.9,2a.23.23,0,0,1-.23-.18l-1.31-.1a1.05,1.05,0,0,1-.05.19l1,.49a.17.17,0,0,1,.12-.05.19.19,0,0,1,.2.19.2.2,0,1,1-.39,0v0l-1-.49a.86.86,0,0,1-.2.26l.56.88h0a.19.19,0,0,1,.2.19.2.2,0,1,1-.39,0,.21.21,0,0,1,0-.11l-.56-.87-.22.11.42,1.23a.19.19,0,0,1,.18.18.19.19,0,0,1-.19.19.18.18,0,0,1-.18-.19.16.16,0,0,1,.06-.13c-.14-.42-.29-.83-.43-1.25l-.19,0h0v1.42a.17.17,0,0,1,.12.17.18.18,0,0,1-.19.19.19.19,0,0,1-.19-.19.17.17,0,0,1,.12-.17V16.41a1,1,0,0,1-.32-.12l-.9,1a.23.23,0,0,1,0,.11.22.22,0,1,1-.22-.22.15.15,0,0,1,.09,0l.88-1a.73.73,0,0,1-.18-.17l-1.16.56v0a.22.22,0,0,1-.22.22.23.23,0,1,1,0-.45.24.24,0,0,1,.16.07l1.14-.55a.9.9,0,0,1-.11-.27l-1.59-.05a.21.21,0,0,1-.18.11.18.18,0,0,1-.18-.19.19.19,0,0,1,.18-.19.21.21,0,0,1,.18.13l1.57,0a.28.28,0,0,1,0-.09,1.35,1.35,0,0,1,0-.28l-1.57-.73a.27.27,0,0,1-.21.1.27.27,0,1,1,.27-.27v0l1.56.73a1,1,0,0,1,.25-.34l-1.2-1.26a.34.34,0,0,1-.17,0,.35.35,0,0,1-.35-.35.35.35,0,0,1,.69,0,.32.32,0,0,1-.07.2l1.21,1.28a1,1,0,0,1,.45-.17l0-1.33a.31.31,0,0,1-.22-.29.3.3,0,0,1,.6,0,.3.3,0,0,1-.23.29c0,.44,0,.88,0,1.33a.92.92,0,0,1,.43.11c.18-.31.37-.62.55-.94a.2.2,0,0,1-.06-.15.24.24,0,1,1,.24.24l-.06,0c-.18.32-.37.63-.55.94a1.36,1.36,0,0,1,.24.24l1-.9a.28.28,0,0,1,0-.13.28.28,0,0,1,.55,0,.27.27,0,0,1-.28.28.33.33,0,0,1-.14,0l-1,.91a.85.85,0,0,1,.09.24l1.32-.2a.24.24,0,0,1,.23-.2.24.24,0,0,1,0,.48.22.22,0,0,1-.21-.14l-1.32.19a.28.28,0,0,1,0,.09.07.07,0,0,1,0,.05l1.3.1a.24.24,0,0,1,.23-.16.24.24,0,0,1,.24.24A.24.24,0,0,1,489.71,15.88Z"/><path class="cls-6" d="M483.21,54.76s-8.36,9.6-22.66,4.69"/><path class="cls-6" d="M503.79,39.35s2.16,26.36-21.37,29.7"/><path class="cls-5" d="M502.14,34.46a7.85,7.85,0,0,1,1-2.62l.17-.28,1.36,2.1c.4-.45,1.3-1.47,2-2.16a10.83,10.83,0,0,0-4.61-5.45c-2,2.12-3.29,5.63-2.84,7.74A7.65,7.65,0,0,1,502.14,34.46Z"/><path class="cls-5" d="M504.78,34.13l-.18.21-1.29-2a6,6,0,0,0-.78,2.42v.32l-.28-.13a8,8,0,0,0-2.92-.75c.43,1.21,1.62,2.21,3.93,2.77.74.17,4.06-1.95,3.52-5C506.07,32.67,505.19,33.66,504.78,34.13Z"/><path class="cls-5" d="M501.35,36.22a6.52,6.52,0,0,1,1.79,4c0,2.19,1.94,1,1.93-1.64s.39-3.17.39-3.17"/><path class="cls-5" d="M479.09,60.18a.16.16,0,0,1,.15.16.15.15,0,0,1-.16.15,11.75,11.75,0,0,0-3.3.53,11.66,11.66,0,0,1,1.9.74,11.74,11.74,0,0,1,3.14-.46.16.16,0,0,1,.16.16.16.16,0,0,1-.16.15,10.83,10.83,0,0,0-2.71.36,14.54,14.54,0,0,1,1.41.84,11.26,11.26,0,0,1,3.05-.44.16.16,0,0,1,.16.16.16.16,0,0,1-.16.15,11,11,0,0,0-2.71.36c.37.26.72.52,1.07.8a11,11,0,0,1,2.74-.36.16.16,0,0,1,.15.16.14.14,0,0,1-.16.15,11.07,11.07,0,0,0-2.43.3c.4.33.78.68,1.15,1a10.68,10.68,0,0,1,2.16-.22.14.14,0,0,1,.15.16.15.15,0,0,1-.15.15,9.8,9.8,0,0,0-1.9.18,14.18,14.18,0,0,1,2.43,3.24c1.61-5.5-.94-9.19-5.35-9.9a7.69,7.69,0,0,0-6.8,1.91,8.54,8.54,0,0,1,2.29.21A12.3,12.3,0,0,1,479.09,60.18Z"/><path class="cls-7" d="M504.3,2H463.47a13,13,0,0,1-13,13V55.17a13,13,0,0,1,13,13c0,.23,0,.46,0,.69h40.85c0-.23,0-.46,0-.69a13,13,0,0,1,13-13V15A13,13,0,0,1,504.3,2Z"/></g></g></svg>