<svg xmlns="http://www.w3.org/2000/svg" viewBox="0 0 188.99 82.76"><defs><style>.cls-1{fill:#588fd6;stroke:#005872;stroke-miterlimit:10;stroke-width:3px;}.cls-2{fill:#fff;}</style></defs><g id="レイヤー_2" data-name="レイヤー 2"><g id="レイヤー_1-2" data-name="レイヤー 1"><rect class="cls-1" x="1.5" y="1.5" width="185.99" height="79.76" rx="15.89"/><path class="cls-2" d="M35.24,47.06c0,1,1.59,3.43,5.31,3.43,2.78,0,4.52-1.83,4.52-3.89,0-1.51-.9-3.1-3-4.26-1.27-.7-2.75-1.48-4.17-2.15a5.47,5.47,0,0,1-3.49-4.81c0-2.5,2-4.82,5.66-4.82a6.7,6.7,0,0,1,4.09,1.16c.06,0,.09.06.12.06s.11-.35.14-.52a.75.75,0,0,1,.79-.58.77.77,0,0,1,.84.75v.06c0,.67-.06,1.22-.06,1.74s0,1.28.06,2.15a.81.81,0,0,1-.84.84.8.8,0,0,1-.85-.79v0a6.39,6.39,0,0,0,0-.64c0-.7-1.24-2.67-4.29-2.67-2.49,0-4,1.54-4,3.22a3.93,3.93,0,0,0,2.53,3.42c1.22.61,3,1.45,4.21,2.09C45.74,42.34,47,44.51,47,46.57c0,2.87-2.47,5.6-6.53,5.6a6.73,6.73,0,0,1-5-1.94c-.06-.06-.09-.09-.12-.09s-.08.67-.14,1.16a.71.71,0,0,1-.78.61.8.8,0,0,1-.87-.81V51c0-.73,0-1.42,0-2.09,0-.84,0-1.65,0-2.44a.78.78,0,0,1,.84-.84.81.81,0,0,1,.87.81v.58Z"/><path class="cls-2" d="M54.15,40.13c-.47,0-.47.06-.47.41,0,1.1-.09,4.09-.09,6.23s.06,3.8,2.32,3.8a7.83,7.83,0,0,0,.82,0h.11a.71.71,0,0,1,.7.75c0,.75-.7.9-1.86.9C52,52.17,52,49,52,47.73c0-1.85.06-5.39.06-6.81v-.47c0-.29-.09-.32-.29-.32H50a.77.77,0,1,1,0-1.54h1.68c.26,0,.32,0,.32-.29,0-.11,0-1.5,0-2.52v-.72a.84.84,0,1,1,1.68,0c0,.85-.06,3.17-.06,3.17,0,.31.06.31.44.31H56.7a.77.77,0,1,1,0,1.54Z"/><path class="cls-2" d="M69.66,50c0-.08-.06-.14-.11-.14a.16.16,0,0,0-.12.09A5.37,5.37,0,0,1,65,52.17c-2.93,0-4.7-2-4.7-4,0-1.45,1-2.93,3.1-3.6a46.32,46.32,0,0,1,5.37-1.19c.35-.06.47-.14.47-.35s0-.32,0-.46c0-1.6-.66-2.84-3-2.84a4.56,4.56,0,0,0-3.4,1.39.8.8,0,0,1-.61.29.79.79,0,0,1-.81-.78c0-1.11,2.44-2.35,4.93-2.35,2.7,0,4.53,1.18,4.53,4.43a7.77,7.77,0,0,1,0,.82c-.09.95-.15,2.46-.15,3.56,0,2.12.21,2.82,1.37,3.22a.74.74,0,0,1,.49.73.79.79,0,0,1-.78.81A2.47,2.47,0,0,1,69.66,50Zm-.43-4.43v-.38c0-.23-.09-.32-.29-.32h-.09c-4.56.73-7,1.31-7,3.34,0,1.21,1.16,2.43,3.1,2.43C66.47,50.63,69.23,50,69.23,45.56Z"/><path class="cls-2" d="M89.09,51.79c-.75,0-1.51-.06-2.26-.06s-1.42,0-2.09.06a.74.74,0,0,1-.87-.75.8.8,0,0,1,.84-.81h0c.35,0,.41,0,.87,0,.29,0,.44-.21.44-.53,0-1.33,0-3,0-4.35,0-1,0-1.8,0-2.2a3.23,3.23,0,0,0-3.31-3.4,4.29,4.29,0,0,0-4.35,3.83c0,.55,0,1.42,0,2.47s0,2.32,0,3.68a.46.46,0,0,0,.52.5,6.44,6.44,0,0,0,.78,0,.77.77,0,0,1,.87.78.79.79,0,0,1-.84.78h0c-.75,0-1.53-.06-2.26-.06s-1.45,0-2.12.06a.75.75,0,0,1-.87-.75.8.8,0,0,1,.84-.81h0c.35,0,.44,0,.9,0a.47.47,0,0,0,.5-.5c0-1.83.05-3.33.05-4.84,0-1.08,0-2.18,0-3.42,0-.76-.27-1.28-1-1.31a5.06,5.06,0,0,0-.61,0h-.06a.77.77,0,0,1-.78-.81.82.82,0,0,1,.84-.84H76a2.06,2.06,0,0,1,2.29,1.62c0,.09.06.15.15.15a.26.26,0,0,0,.14-.09,5.43,5.43,0,0,1,4.3-2,4.6,4.6,0,0,1,4.84,4.64c0,.95.06,3.33.06,5.42v1.39c0,.32.14.53.46.53s.44,0,.84,0h0a.78.78,0,1,1,0,1.56Z"/><path class="cls-2" d="M106.9,50.2a.77.77,0,0,1,.75.84c0,.81-.78.9-1.16.9a2.38,2.38,0,0,1-2.64-2.06c0-.18-.06-.29-.14-.29s-.06,0-.12.08a6,6,0,0,1-4.84,2.44c-3.77,0-6.59-2.73-6.59-6.93a6.5,6.5,0,0,1,6.59-6.88,5.86,5.86,0,0,1,4.58,2.09c.15.21.23.35.29.35s.09-.14.09-.52c0-1.48,0-3.54,0-5.22,0-2,0-2.47-1.16-2.47a3.58,3.58,0,0,0-.47,0h-.06a.75.75,0,0,1-.81-.75.86.86,0,0,1,.9-.87l1,0a2.11,2.11,0,0,1,2.32,2.41v.11c0,2.44-.06,7.14-.06,11.11v4c0,1.39.49,1.74,1.13,1.74.15,0,.26,0,.38,0Zm-3.19-5c0-3.25-2.15-5.37-4.9-5.37-2.93,0-4.94,2-4.94,5.37s2,5.34,4.94,5.34C101.53,50.52,103.71,48.4,103.71,45.18Z"/><path class="cls-2" d="M119.42,44.25a.85.85,0,0,1,.9.9.87.87,0,0,1-.92.9c-2.24,0-3.69-.06-4.94-.06-1,0-2,0-3.13.06a.9.9,0,1,1-.09-1.8h0c1.16,0,2.53,0,4,0s2.87,0,4.18,0Z"/><path class="cls-2" d="M123.83,50.2c1,0,1.51-.21,1.51-1.71,0-3.05,0-7.23,0-10.74V33.9c0-1.11-.35-1.37-1.22-1.37a2.23,2.23,0,0,0-.38,0,.77.77,0,0,1-.84-.81.81.81,0,0,1,.81-.84h.93A2.15,2.15,0,0,1,127,33.32v.08c0,2-.06,4.41-.06,7,0,.21,0,.32.06.32s.15-.06.26-.23a5.81,5.81,0,0,1,4.7-2.23,6.52,6.52,0,0,1,6.59,6.9c0,4.2-2.82,6.9-6.59,6.9a6.19,6.19,0,0,1-4.79-2.2c-.14-.18-.23-.29-.29-.29s-.08.08-.11.26a2.45,2.45,0,0,1-2.58,2.09c-1,0-1.19-.64-1.19-.93a.76.76,0,0,1,.78-.81Zm13-5c0-3.25-2.14-5.42-4.9-5.42S127,41.93,127,45.18s2.18,5.34,4.93,5.34S136.82,48.43,136.82,45.18Z"/><path class="cls-2" d="M142.59,59.48a.86.86,0,0,1-.9-.87.84.84,0,0,1,1-.84c2.35,0,3.34-1.63,4.87-5.19a1,1,0,0,0,.09-.38,1.37,1.37,0,0,0-.14-.49c-.79-2-3.46-8.36-4.53-11.14-.12-.29-.23-.52-.61-.52s-.4,0-.81,0a.75.75,0,1,1,0-1.5h.06c.78,0,1.51,0,2.2,0s1.39,0,2.09,0h.06a.68.68,0,0,1,.75.72.74.74,0,0,1-.78.76c-.35,0-.38,0-.84,0-.26,0-.38.08-.38.29a.72.72,0,0,0,0,.23c1.86,4.93,3.57,9.37,3.83,9.37s3.94-9.34,3.94-9.57-.14-.32-.4-.32c-.47,0-.5,0-.84,0a.77.77,0,0,1-.82-.76.73.73,0,0,1,.79-.72h.06c.69,0,1.39,0,2.08,0s1.45,0,2.21,0h.06a.75.75,0,1,1,0,1.5l-.67,0c-.26,0-.46,0-.55.17s-4.47,10.64-5.63,13.46C147.12,57.65,145.61,59.45,142.59,59.48Z"/></g></g></svg>