<svg xmlns="http://www.w3.org/2000/svg" viewBox="0 0 1125.38 439"><defs><style>.cls-1{fill:#fff;}.cls-2{fill:#005872;}</style></defs><g id="レイヤー_2" data-name="レイヤー 2"><g id="レイヤー_1-2" data-name="レイヤー 1"><path class="cls-1" d="M35.64,437.5A35.73,35.73,0,0,0,1.5,403.36V35.64A35.73,35.73,0,0,0,35.64,1.5H705.92a35.72,35.72,0,0,0,34.14,34.14V403.36a35.72,35.72,0,0,0-34.14,34.14Z"/><path class="cls-2" d="M704.51,3a37.23,37.23,0,0,0,34,34.05V402a37.23,37.23,0,0,0-34,34.05H37.05A37.24,37.24,0,0,0,3,402V37.05A37.24,37.24,0,0,0,37.05,3H704.51m2.88-3H34.17A34.17,34.17,0,0,1,0,34.17V404.83A34.17,34.17,0,0,1,34.17,439H707.39a34.17,34.17,0,0,1,34.17-34.17V34.17A34.17,34.17,0,0,1,707.39,0Z"/><path class="cls-2" d="M679.51,28a37.23,37.23,0,0,0,34,34.05V377a37.23,37.23,0,0,0-34,34.05H62.05A37.24,37.24,0,0,0,28,377V62.05A37.24,37.24,0,0,0,62.05,28H679.51m2.88-3H59.17A34.17,34.17,0,0,1,25,59.17V379.83A34.17,34.17,0,0,1,59.17,414H682.39a34.17,34.17,0,0,1,34.17-34.17V59.17A34.17,34.17,0,0,1,682.39,25Z"/><path class="cls-1" d="M830.6,437.5a35.72,35.72,0,0,0-34.14-34.14V35.64A35.72,35.72,0,0,0,830.6,1.5h259.15a35.72,35.72,0,0,0,34.13,34.14V403.36a35.72,35.72,0,0,0-34.13,34.14Z"/><path class="cls-2" d="M1088.34,3a37.22,37.22,0,0,0,34,34.05V402a37.22,37.22,0,0,0-34,34.05H832A37.24,37.24,0,0,0,798,402V37.05A37.24,37.24,0,0,0,832,3h256.33m2.88-3H829.13A34.17,34.17,0,0,1,795,34.17V404.83A34.17,34.17,0,0,1,829.13,439h262.09a34.16,34.16,0,0,1,34.16-34.17V34.17A34.16,34.16,0,0,1,1091.22,0Z"/><path class="cls-2" d="M1063.33,28a37.24,37.24,0,0,0,34.05,34.05V377A37.24,37.24,0,0,0,1063.33,411H857A37.24,37.24,0,0,0,823,377V62.05a37.24,37.24,0,0,0,34-34h206.32m2.88-3H854.13A34.17,34.17,0,0,1,820,59.17V379.83A34.17,34.17,0,0,1,854.13,414h212.08a34.17,34.17,0,0,1,34.17-34.17V59.17A34.17,34.17,0,0,1,1066.21,25Z"/></g></g></svg>