<svg xmlns="http://www.w3.org/2000/svg" viewBox="0 0 741.56 439"><defs><style>.cls-1{fill:#fff;}.cls-2{fill:#005872;}</style></defs><g id="レイヤー_2" data-name="レイヤー 2"><g id="レイヤー_1-2" data-name="レイヤー 1"><path class="cls-1" d="M35.64,437.5A35.72,35.72,0,0,0,1.5,403.36V35.64A35.72,35.72,0,0,0,35.64,1.5H705.92a35.72,35.72,0,0,0,34.14,34.14V403.36a35.72,35.72,0,0,0-34.14,34.14Z"/><path class="cls-2" d="M704.51,3a37.23,37.23,0,0,0,34,34.05V402a37.23,37.23,0,0,0-34,34.05H37.05A37.24,37.24,0,0,0,3,402V37.05A37.24,37.24,0,0,0,37.05,3H704.51m2.88-3H34.17A34.17,34.17,0,0,1,0,34.17V404.83A34.17,34.17,0,0,1,34.17,439H707.39a34.17,34.17,0,0,1,34.17-34.17V34.17A34.17,34.17,0,0,1,707.39,0Z"/><path class="cls-2" d="M679.51,28a37.23,37.23,0,0,0,34,34.05V377a37.23,37.23,0,0,0-34,34.05H62.05A37.24,37.24,0,0,0,28,377V62.05A37.24,37.24,0,0,0,62.05,28H679.51m2.88-3H59.17A34.17,34.17,0,0,1,25,59.17V379.83A34.17,34.17,0,0,1,59.17,414H682.39a34.17,34.17,0,0,1,34.17-34.17V59.17A34.17,34.17,0,0,1,682.39,25Z"/></g></g></svg>